
	<svg xmlns="http://www.w3.org/2000/svg" xmlns:xlink="http://www.w3.org/1999/xlink" version="1.1" width="128" height="128" viewBox="0 0 100 100">


		<defs>
			<g id="background">
<path fill="url(#background-gradient)" stroke="none" d=" M 90.75 23.05 Q 89.5 23.05 88.85 24.15 88.15 25.25 88.85 26.35 97.25 40.2 95.15 56.15 93.05 71.65 81.75 82.6 70.35 93.7 54.9 95.25 32.95 97.55 17.6 81.85 2.2 66.2 4.85 44.2 6.6 30.2 16.15 19.7 25.65 9.1 39.25 5.8 50.55 3 61.7 5.95 62.85 6.3 63.7 5.65 64.6 5 64.6 3.85 64.6 2.25 62.95 1.7 52.55 -1.1 41.6 0.65 25.55 3.3 14.4 14.85 3.1 26.25 0.65 42.4 -2.95 66.9 14 84.5 30.85 102.1 55.2 99.7 72.6 97.9 85.2 85.4 97.95 72.8 99.7 55.35 101.45 38.55 92.75 24.05 92.05 23.05 90.75 23.05 Z"/>
</g><mask id="mask">
<path fill="#FFFFFF" stroke="none" d=" M 82.2 82.15 Q 95.5 68.85 95.5 49.95 95.5 31.1 82.2 17.8 68.85 4.5 50 4.5 31.15 4.5 17.8 17.8 4.5 31.1 4.5 49.95 4.5 68.85 17.8 82.15 31.15 95.45 50 95.45 68.85 95.45 82.2 82.15 Z"/>
</mask>
			
	<linearGradient id="background-gradient" x1="0" y1="0" y2="1" x2="0" >
		<stop stop-color="#36C8EB" offset="0%"/>
		<stop stop-color="#36C8EB" offset="100%"/>
	</linearGradient>

			
			
			<g transform="scale(0.37404569434800383) translate(-4.628000259399414 -16.32599639892578)" id="picture"><path d="M211.165 206.019v-9.636h53.342V167.99h-42.94v-9.808h42.94v-28.393h-53.342v-9.808h60.81v86.038h-60.81zm-142.496-65.45l26.2-30.589h15.6v98.04h-11.6v-85.49c-1.2 1.568-3.8 4.705-7.8 9.215-3.8 4.51-6.4 7.451-7.8 9.02h-14.6v-.196z M4.628 90.206H109.51v13.393H62.942v106.195H51.195V103.6H4.628V90.205zm181.253 17.284h9.521v99.02h-54.611c-3.953 0-7.366-1.585-10.06-4.555-2.695-2.971-4.132-6.734-4.132-11.09v-43.371c0-4.357 1.437-7.922 4.131-11.09 2.695-2.97 6.108-4.555 10.06-4.555h45.091V107.49zm-45.09 88.523h40.6c1.257 0 2.334-.396 3.233-1.386.898-.99 1.257-2.178 1.257-3.565v-43.568c0-1.386-.36-2.575-1.257-3.565-.899-.99-1.976-1.386-3.234-1.386h-40.6c-1.257 0-2.335.396-3.233 1.386-.898.99-1.258 2.179-1.258 3.565v43.37c0 1.387.36 2.575 1.258 3.565.898.99 1.976 1.584 3.234 1.584z"/></g>
			
	<linearGradient id="picture-gradient" x1="0" y1="0" y2="1" x2="0" >
		<stop stop-color="#ffffff" offset="0%"/>
		<stop stop-color="#e5eff9" offset="100%"/>
	</linearGradient>

		</defs>

		

			<use xlink:href="#background" fill="url(#background-gradient)" />

		

			<g mask="url(#mask)">
				<g transform="
				        translate(
                                50 50
)
                            translate(0 0)  scale(0.5)  
                            translate(
                                -50 -50
)">
						<use xlink:href="#picture" fill="url(#picture-gradient)"  />
				</g>
			</g>

		



	</svg>
